EncodeNew-Bold Extended.ufo
<glyph name="ampersand" format="1">
  <advance width="923"/>
  <unicode hex="0026"/>
  <outline>
    <contour>
      <point x="923" y="155" type="line"/>
      <point x="418" y="431" type="line" smooth="yes"/>
      <point x="373" y="456"/>
      <point x="355" y="476"/>
      <point x="355" y="501" type="curve" smooth="yes"/>
      <point x="355" y="540"/>
      <point x="384" y="569"/>
      <point x="512" y="569" type="curve" smooth="yes"/>
      <point x="558" y="569"/>
      <point x="610" y="563"/>
      <point x="647" y="556" type="curve"/>
      <point x="647" y="740" type="line"/>
      <point x="602" y="746"/>
      <point x="554" y="750"/>
      <point x="496" y="750" type="curve" smooth="yes"/>
      <point x="242" y="750"/>
      <point x="122" y="659"/>
      <point x="122" y="512" type="curve" smooth="yes"/>
      <point x="122" y="439"/>
      <point x="156" y="360"/>
      <point x="328" y="266" type="curve" smooth="yes"/>
      <point x="833" y="-10" type="line"/>
    </contour>
    <contour>
      <point x="645" y="-9"/>
      <point x="791" y="106"/>
      <point x="791" y="333" type="curve" smooth="yes"/>
      <point x="791" y="369"/>
      <point x="785" y="413"/>
      <point x="775" y="453" type="curve"/>
      <point x="596" y="453" type="line"/>
      <point x="606" y="413"/>
      <point x="613" y="368"/>
      <point x="613" y="331" type="curve" smooth="yes"/>
      <point x="613" y="188"/>
      <point x="530" y="145"/>
      <point x="424" y="145" type="curve" smooth="yes"/>
      <point x="338" y="145"/>
      <point x="286" y="174"/>
      <point x="286" y="227" type="curve" smooth="yes"/>
      <point x="286" y="266"/>
      <point x="306" y="293"/>
      <point x="333" y="316" type="curve"/>
      <point x="212" y="393" type="line"/>
      <point x="126" y="370"/>
      <point x="53" y="301"/>
      <point x="53" y="203" type="curve" smooth="yes"/>
      <point x="53" y="74"/>
      <point x="168" y="-9"/>
      <point x="396" y="-9" type="curve" smooth="yes"/>
    </contour>
  </outline>
</glyph>
<glyph name="zero" format="1">
  <advance width="720"/>
  <unicode hex="0030"/>
  <note>
    600
  </note>
  <outline>
    <contour>
      <point x="558" y="-10"/>
      <point x="686" y="119"/>
      <point x="686" y="370" type="curve" smooth="yes"/>
      <point x="686" y="621"/>
      <point x="558" y="750"/>
      <point x="360" y="750" type="curve" smooth="yes"/>
      <point x="161" y="750"/>
      <point x="34" y="621"/>
      <point x="34" y="370" type="curve" smooth="yes"/>
      <point x="34" y="119"/>
      <point x="161" y="-10"/>
      <point x="360" y="-10" type="curve" smooth="yes"/>
    </contour>
    <contour>
      <point x="298" y="177"/>
      <point x="263" y="220"/>
      <point x="263" y="370" type="curve" smooth="yes"/>
      <point x="263" y="520"/>
      <point x="299" y="563"/>
      <point x="360" y="563" type="curve" smooth="yes"/>
      <point x="421" y="563"/>
      <point x="457" y="520"/>
      <point x="457" y="370" type="curve" smooth="yes"/>
      <point x="457" y="220"/>
      <point x="421" y="177"/>
      <point x="360" y="177" type="curve" smooth="yes"/>
    </contour>
  </outline>
</glyph>
<glyph name="one" format="1">
  <advance width="720"/>
  <unicode hex="0031"/>
  <outline>
    <contour>
      <point x="516" y="0" type="line"/>
      <point x="516" y="743" type="line"/>
      <point x="356" y="743" type="line"/>
      <point x="98" y="558" type="line"/>
      <point x="98" y="339" type="line"/>
      <point x="356" y="524" type="line"/>
      <point x="278" y="622" type="line"/>
      <point x="278" y="0" type="line"/>
    </contour>
    <contour>
      <point x="686" y="0" type="line"/>
      <point x="686" y="185" type="line"/>
      <point x="98" y="185" type="line"/>
      <point x="98" y="0" type="line"/>
    </contour>
  </outline>
</glyph>
<glyph name="two" format="1">
  <advance width="720"/>
  <unicode hex="0032"/>
  <outline>
    <contour>
      <point x="665" y="0" type="line"/>
      <point x="665" y="184" type="line"/>
      <point x="325" y="184" type="line"/>
      <point x="318" y="124" type="line"/>
      <point x="502" y="297" type="line" smooth="yes"/>
      <point x="590" y="380"/>
      <point x="628" y="448"/>
      <point x="628" y="525" type="curve" smooth="yes"/>
      <point x="628" y="676"/>
      <point x="520" y="750"/>
      <point x="269" y="750" type="curve" smooth="yes"/>
      <point x="196" y="750"/>
      <point x="98" y="735"/>
      <point x="46" y="720" type="curve"/>
      <point x="46" y="536" type="line"/>
      <point x="96" y="553"/>
      <point x="176" y="569"/>
      <point x="251" y="569" type="curve" smooth="yes"/>
      <point x="360" y="569"/>
      <point x="395" y="545"/>
      <point x="395" y="498" type="curve" smooth="yes"/>
      <point x="395" y="464"/>
      <point x="369" y="430"/>
      <point x="305" y="367" type="curve" smooth="yes"/>
      <point x="55" y="121" type="line"/>
      <point x="55" y="0" type="line"/>
    </contour>
  </outline>
</glyph>
<glyph name="three" format="1">
  <advance width="720"/>
  <unicode hex="0033"/>
  <outline>
    <contour>
      <point x="549" y="-10"/>
      <point x="651" y="78"/>
      <point x="651" y="212" type="curve" smooth="yes"/>
      <point x="651" y="315"/>
      <point x="585" y="368"/>
      <point x="486" y="384" type="curve"/>
      <point x="486" y="378" type="line"/>
      <point x="569" y="397"/>
      <point x="623" y="458"/>
      <point x="623" y="538" type="curve" smooth="yes"/>
      <point x="623" y="672"/>
      <point x="517" y="750"/>
      <point x="287" y="750" type="curve" smooth="yes"/>
      <point x="211" y="750"/>
      <point x="117" y="737"/>
      <point x="61" y="720" type="curve"/>
      <point x="61" y="555" type="line"/>
      <point x="120" y="574"/>
      <point x="202" y="586"/>
      <point x="265" y="586" type="curve" smooth="yes"/>
      <point x="361" y="586"/>
      <point x="397" y="561"/>
      <point x="397" y="520" type="curve" smooth="yes"/>
      <point x="397" y="484"/>
      <point x="367" y="460"/>
      <point x="261" y="460" type="curve" smooth="yes"/>
      <point x="128" y="460" type="line"/>
      <point x="128" y="295" type="line"/>
      <point x="284" y="295" type="line" smooth="yes"/>
      <point x="398" y="295"/>
      <point x="432" y="271"/>
      <point x="432" y="226" type="curve" smooth="yes"/>
      <point x="432" y="181"/>
      <point x="391" y="154"/>
      <point x="280" y="154" type="curve" smooth="yes"/>
      <point x="199" y="154"/>
      <point x="113" y="167"/>
      <point x="48" y="182" type="curve"/>
      <point x="48" y="17" type="line"/>
      <point x="118" y="1"/>
      <point x="201" y="-10"/>
      <point x="294" y="-10" type="curve" smooth="yes"/>
    </contour>
  </outline>
</glyph>
<glyph name="four" format="1">
  <advance width="720"/>
  <unicode hex="0034"/>
  <outline>
    <contour>
      <point x="705" y="128" type="line"/>
      <point x="705" y="308" type="line"/>
      <point x="218" y="308" type="line"/>
      <point x="236" y="253" type="line"/>
      <point x="467" y="740" type="line"/>
      <point x="253" y="740" type="line"/>
      <point x="16" y="253" type="line"/>
      <point x="16" y="128" type="line"/>
    </contour>
    <contour>
      <point x="606" y="0" type="line"/>
      <point x="606" y="490" type="line"/>
      <point x="413" y="490" type="line"/>
      <point x="393" y="308" type="line"/>
      <point x="393" y="0" type="line"/>
    </contour>
  </outline>
</glyph>
<glyph name="five" format="1">
  <advance width="720"/>
  <unicode hex="0035"/>
  <outline>
    <contour>
      <point x="555" y="-10"/>
      <point x="666" y="78"/>
      <point x="667" y="229" type="curve" smooth="yes"/>
      <point x="668" y="373"/>
      <point x="568" y="455"/>
      <point x="289" y="467" type="curve" smooth="yes"/>
      <point x="155" y="473" type="line"/>
      <point x="313" y="397" type="line"/>
      <point x="333" y="670" type="line"/>
      <point x="239" y="572" type="line"/>
      <point x="633" y="572" type="line"/>
      <point x="633" y="740" type="line"/>
      <point x="117" y="740" type="line"/>
      <point x="87" y="311" type="line"/>
      <point x="221" y="305" type="line" smooth="yes"/>
      <point x="409" y="297"/>
      <point x="447" y="272"/>
      <point x="447" y="227" type="curve" smooth="yes"/>
      <point x="447" y="185"/>
      <point x="406" y="158"/>
      <point x="295" y="158" type="curve" smooth="yes"/>
      <point x="214" y="158"/>
      <point x="128" y="171"/>
      <point x="63" y="186" type="curve"/>
      <point x="63" y="21" type="line"/>
      <point x="133" y="3"/>
      <point x="216" y="-10"/>
      <point x="309" y="-10" type="curve" smooth="yes"/>
    </contour>
  </outline>
</glyph>
<glyph name="six" format="1">
  <advance width="720"/>
  <unicode hex="0036"/>
  <outline>
    <contour>
      <point x="581" y="-10"/>
      <point x="689" y="89"/>
      <point x="689" y="229" type="curve" smooth="yes"/>
      <point x="689" y="391"/>
      <point x="579" y="460"/>
      <point x="428" y="460" type="curve" smooth="yes"/>
      <point x="360" y="460"/>
      <point x="286" y="440"/>
      <point x="246" y="409" type="curve"/>
      <point x="246" y="262" type="line"/>
      <point x="289" y="288"/>
      <point x="333" y="302"/>
      <point x="381" y="302" type="curve" smooth="yes"/>
      <point x="440" y="302"/>
      <point x="477" y="278"/>
      <point x="477" y="224" type="curve" smooth="yes"/>
      <point x="477" y="175"/>
      <point x="444" y="148"/>
      <point x="388" y="148" type="curve" smooth="yes"/>
      <point x="320" y="148"/>
      <point x="279" y="185"/>
      <point x="279" y="308" type="curve" smooth="yes"/>
      <point x="279" y="411" type="line" smooth="yes"/>
      <point x="279" y="514"/>
      <point x="338" y="582"/>
      <point x="477" y="582" type="curve" smooth="yes"/>
      <point x="530" y="582"/>
      <point x="592" y="572"/>
      <point x="642" y="553" type="curve"/>
      <point x="642" y="722" type="line"/>
      <point x="586" y="743"/>
      <point x="529" y="750"/>
      <point x="460" y="750" type="curve" smooth="yes"/>
      <point x="195" y="750"/>
      <point x="51" y="600"/>
      <point x="51" y="341" type="curve" smooth="yes"/>
      <point x="51" y="109"/>
      <point x="191" y="-10"/>
      <point x="388" y="-10" type="curve" smooth="yes"/>
    </contour>
  </outline>
</glyph>
<glyph name="seven" format="1">
  <advance width="720"/>
  <unicode hex="0037"/>
  <outline>
    <contour>
      <point x="396" y="0" type="line"/>
      <point x="657" y="619" type="line"/>
      <point x="657" y="740" type="line"/>
      <point x="40" y="740" type="line"/>
      <point x="40" y="556" type="line"/>
      <point x="510" y="556" type="line"/>
      <point x="428" y="619" type="line"/>
      <point x="151" y="0" type="line"/>
    </contour>
  </outline>
</glyph>
<glyph name="eight" format="1">
  <advance width="720"/>
  <unicode hex="0038"/>
  <outline>
    <contour>
      <point x="598" y="-10"/>
      <point x="691" y="96"/>
      <point x="691" y="216" type="curve" smooth="yes"/>
      <point x="691" y="323"/>
      <point x="634" y="398"/>
      <point x="429" y="447" type="curve" smooth="yes"/>
      <point x="287" y="481"/>
      <point x="267" y="504"/>
      <point x="267" y="542" type="curve" smooth="yes"/>
      <point x="267" y="570"/>
      <point x="295" y="598"/>
      <point x="373" y="598" type="curve" smooth="yes"/>
      <point x="439" y="598"/>
      <point x="470" y="574"/>
      <point x="470" y="536" type="curve" smooth="yes"/>
      <point x="470" y="499"/>
      <point x="446" y="465"/>
      <point x="380" y="433" type="curve"/>
      <point x="516" y="384" type="line"/>
      <point x="635" y="421"/>
      <point x="672" y="490"/>
      <point x="672" y="565" type="curve" smooth="yes"/>
      <point x="672" y="681"/>
      <point x="570" y="750"/>
      <point x="380" y="750" type="curve" smooth="yes"/>
      <point x="148" y="750"/>
      <point x="49" y="658"/>
      <point x="49" y="534" type="curve" smooth="yes"/>
      <point x="49" y="426"/>
      <point x="111" y="338"/>
      <point x="315" y="295" type="curve" smooth="yes"/>
      <point x="447" y="267"/>
      <point x="475" y="244"/>
      <point x="475" y="203" type="curve" smooth="yes"/>
      <point x="475" y="167"/>
      <point x="443" y="142"/>
      <point x="363" y="142" type="curve" smooth="yes"/>
      <point x="282" y="142"/>
      <point x="246" y="169"/>
      <point x="246" y="213" type="curve" smooth="yes"/>
      <point x="246" y="249"/>
      <point x="271" y="290"/>
      <point x="348" y="315" type="curve"/>
      <point x="197" y="361" type="line"/>
      <point x="88" y="333"/>
      <point x="29" y="266"/>
      <point x="29" y="179" type="curve" smooth="yes"/>
      <point x="29" y="74"/>
      <point x="121" y="-10"/>
      <point x="362" y="-10" type="curve" smooth="yes"/>
    </contour>
  </outline>
</glyph>
<glyph name="nine" format="1">
  <advance width="720"/>
  <unicode hex="0039"/>
  <outline>
    <contour>
      <point x="139" y="750"/>
      <point x="31" y="651"/>
      <point x="31" y="511" type="curve" smooth="yes"/>
      <point x="31" y="349"/>
      <point x="141" y="280"/>
      <point x="292" y="280" type="curve" smooth="yes"/>
      <point x="360" y="280"/>
      <point x="434" y="300"/>
      <point x="474" y="331" type="curve"/>
      <point x="474" y="478" type="line"/>
      <point x="431" y="452"/>
      <point x="387" y="438"/>
      <point x="339" y="438" type="curve" smooth="yes"/>
      <point x="280" y="438"/>
      <point x="243" y="462"/>
      <point x="243" y="516" type="curve" smooth="yes"/>
      <point x="243" y="565"/>
      <point x="276" y="592"/>
      <point x="332" y="592" type="curve" smooth="yes"/>
      <point x="400" y="592"/>
      <point x="441" y="555"/>
      <point x="441" y="432" type="curve" smooth="yes"/>
      <point x="441" y="329" type="line" smooth="yes"/>
      <point x="441" y="226"/>
      <point x="382" y="158"/>
      <point x="243" y="158" type="curve" smooth="yes"/>
      <point x="190" y="158"/>
      <point x="128" y="168"/>
      <point x="78" y="187" type="curve"/>
      <point x="78" y="18" type="line"/>
      <point x="134" y="-3"/>
      <point x="191" y="-10"/>
      <point x="260" y="-10" type="curve" smooth="yes"/>
      <point x="525" y="-10"/>
      <point x="669" y="140"/>
      <point x="669" y="399" type="curve" smooth="yes"/>
      <point x="669" y="631"/>
      <point x="529" y="750"/>
      <point x="332" y="750" type="curve" smooth="yes"/>
    </contour>
  </outline>
</glyph>
<glyph name="A" format="1">
  <advance width="878"/>
  <unicode hex="0041"/>
  <note>
    520
  </note>
  <outline>
    <contour>
      <point x="237" y="0" type="line"/>
      <point x="448" y="642" type="line"/>
      <point x="428" y="642" type="line"/>
      <point x="639" y="0" type="line"/>
      <point x="871" y="0" type="line"/>
      <point x="611" y="740" type="line"/>
      <point x="267" y="740" type="line"/>
      <point x="7" y="0" type="line"/>
    </contour>
    <contour>
      <point x="627" y="167" type="line"/>
      <point x="573" y="342" type="line"/>
      <point x="304" y="342" type="line"/>
      <point x="249" y="167" type="line"/>
    </contour>
    <contour>
      <point x="871" y="0" type="move" name="ogonek"/>
    </contour>
    <contour>
      <point x="439" y="0" type="move" name="bottom"/>
    </contour>
    <contour>
      <point x="438" y="760" type="move" name="top"/>
    </contour>
  </outline>
</glyph>
<glyph name="B" format="1">
  <advance width="759"/>
  <unicode hex="0042"/>
  <outline>
    <contour>
      <point x="634" y="-10"/>
      <point x="733" y="78"/>
      <point x="733" y="215" type="curve" smooth="yes"/>
      <point x="733" y="318"/>
      <point x="669" y="371"/>
      <point x="589" y="384" type="curve"/>
      <point x="589" y="378" type="line"/>
      <point x="660" y="394"/>
      <point x="714" y="455"/>
      <point x="714" y="535" type="curve" smooth="yes"/>
      <point x="714" y="672"/>
      <point x="611" y="750"/>
      <point x="353" y="750" type="curve" smooth="yes"/>
      <point x="262" y="750"/>
      <point x="143" y="735"/>
      <point x="64" y="716" type="curve"/>
      <point x="64" y="6" type="line"/>
      <point x="133" y="-3"/>
      <point x="243" y="-10"/>
      <point x="310" y="-10" type="curve" smooth="yes"/>
    </contour>
    <contour>
      <point x="351" y="152"/>
      <point x="327" y="152"/>
      <point x="297" y="155" type="curve"/>
      <point x="297" y="579" type="line"/>
      <point x="321" y="584"/>
      <point x="352" y="588"/>
      <point x="380" y="588" type="curve" smooth="yes"/>
      <point x="464" y="588"/>
      <point x="491" y="566"/>
      <point x="491" y="524" type="curve" smooth="yes"/>
      <point x="491" y="484"/>
      <point x="465" y="460"/>
      <point x="389" y="460" type="curve" smooth="yes"/>
      <point x="271" y="460" type="line"/>
      <point x="271" y="295" type="line"/>
      <point x="409" y="295" type="line" smooth="yes"/>
      <point x="492" y="295"/>
      <point x="517" y="272"/>
      <point x="517" y="223" type="curve" smooth="yes"/>
      <point x="517" y="178"/>
      <point x="488" y="152"/>
      <point x="376" y="152" type="curve" smooth="yes"/>
    </contour>
    <contour>
      <point x="396" y="740" type="move" name="top"/>
    </contour>
    <contour>
      <point x="396" y="0" type="move" name="bottom"/>
    </contour>
  </outline>
</glyph>
<glyph name="C" format="1">
  <advance width="742"/>
  <unicode hex="0043"/>
  <outline>
    <contour>
      <point x="587" y="-10"/>
      <point x="653" y="-2"/>
      <point x="707" y="10" type="curve"/>
      <point x="707" y="198" type="line"/>
      <point x="658" y="188"/>
      <point x="600" y="180"/>
      <point x="538" y="180" type="curve" smooth="yes"/>
      <point x="361" y="180"/>
      <point x="289" y="248"/>
      <point x="289" y="370" type="curve" smooth="yes"/>
      <point x="289" y="492"/>
      <point x="361" y="560"/>
      <point x="548" y="560" type="curve" smooth="yes"/>
      <point x="606" y="560"/>
      <point x="658" y="555"/>
      <point x="707" y="546" type="curve"/>
      <point x="707" y="734" type="line"/>
      <point x="650" y="745"/>
      <point x="591" y="750"/>
      <point x="528" y="750" type="curve" smooth="yes"/>
      <point x="206" y="750"/>
      <point x="41" y="601"/>
      <point x="41" y="368" type="curve" smooth="yes"/>
      <point x="41" y="121"/>
      <point x="203" y="-10"/>
      <point x="523" y="-10" type="curve" smooth="yes"/>
    </contour>
    <contour>
      <point x="439" y="760" type="move" name="top"/>
    </contour>
    <contour>
      <point x="439" y="0" type="move" name="bottom"/>
    </contour>
  </outline>
</glyph>
<glyph name="D" format="1">
  <advance width="898"/>
  <unicode hex="0044"/>
  <outline>
    <contour>
      <point x="680" y="-7"/>
      <point x="857" y="99"/>
      <point x="857" y="370" type="curve" smooth="yes"/>
      <point x="857" y="629"/>
      <point x="689" y="747"/>
      <point x="369" y="747" type="curve" smooth="yes"/>
      <point x="269" y="747"/>
      <point x="145" y="735"/>
      <point x="64" y="716" type="curve"/>
      <point x="64" y="7" type="line"/>
      <point x="144" y="-3"/>
      <point x="246" y="-7"/>
      <point x="315" y="-7" type="curve" smooth="yes"/>
    </contour>
    <contour>
      <point x="351" y="178"/>
      <point x="326" y="178"/>
      <point x="302" y="180" type="curve"/>
      <point x="302" y="556" type="line"/>
      <point x="324" y="560"/>
      <point x="357" y="563"/>
      <point x="380" y="563" type="curve" smooth="yes"/>
      <point x="540" y="563"/>
      <point x="617" y="505"/>
      <point x="617" y="372" type="curve" smooth="yes"/>
      <point x="617" y="235"/>
      <point x="545" y="178"/>
      <point x="380" y="178" type="curve" smooth="yes"/>
    </contour>
    <contour>
      <point x="442" y="370" type="move" name="center"/>
    </contour>
    <contour>
      <point x="64" y="381" type="move" name="stroke"/>
    </contour>
    <contour>
      <point x="386" y="760" type="move" name="top"/>
    </contour>
    <contour>
      <point x="396" y="0" type="move" name="bottom"/>
    </contour>
  </outline>
</glyph>
<glyph name="E" format="1">
  <advance width="747"/>
  <unicode hex="0045"/>
  <outline>
    <contour>
      <point x="705" y="0" type="line"/>
      <point x="705" y="177" type="line"/>
      <point x="299" y="177" type="line"/>
      <point x="299" y="563" type="line"/>
      <point x="700" y="563" type="line"/>
      <point x="700" y="740" type="line"/>
      <point x="64" y="740" type="line"/>
      <point x="64" y="0" type="line"/>
    </contour>
    <contour>
      <point x="647" y="290" type="line"/>
      <point x="647" y="465" type="line"/>
      <point x="178" y="465" type="line"/>
      <point x="178" y="290" type="line"/>
    </contour>
    <contour>
      <point x="655" y="0" type="move" name="ogonek"/>
    </contour>
    <contour>
      <point x="393" y="760" type="move" name="top"/>
    </contour>
    <contour>
      <point x="19" y="740" type="move" name="topleft"/>
    </contour>
    <contour>
      <point x="393" y="0" type="move" name="bottom"/>
    </contour>
  </outline>
</glyph>
<glyph name="F" format="1">
  <advance width="735"/>
  <unicode hex="0046"/>
  <outline>
    <contour>
      <point x="302" y="0" type="line"/>
      <point x="302" y="556" type="line"/>
      <point x="700" y="556" type="line"/>
      <point x="700" y="740" type="line"/>
      <point x="64" y="740" type="line"/>
      <point x="64" y="0" type="line"/>
    </contour>
    <contour>
      <point x="644" y="261" type="line"/>
      <point x="644" y="445" type="line"/>
      <point x="194" y="445" type="line"/>
      <point x="194" y="261" type="line"/>
    </contour>
  </outline>
</glyph>
<glyph name="G" format="1">
  <advance width="835"/>
  <unicode hex="0047"/>
  <outline>
    <contour>
      <point x="623" y="-10"/>
      <point x="696" y="-2"/>
      <point x="769" y="10" type="curve"/>
      <point x="769" y="360" type="line"/>
      <point x="548" y="360" type="line"/>
      <point x="548" y="77" type="line"/>
      <point x="677" y="188" type="line"/>
      <point x="634" y="182"/>
      <point x="579" y="178"/>
      <point x="533" y="178" type="curve" smooth="yes"/>
      <point x="360" y="178"/>
      <point x="287" y="248"/>
      <point x="287" y="362" type="curve" smooth="yes"/>
      <point x="287" y="491"/>
      <point x="363" y="559"/>
      <point x="577" y="560" type="curve" smooth="yes"/>
      <point x="634" y="560"/>
      <point x="691" y="555"/>
      <point x="740" y="546" type="curve"/>
      <point x="740" y="734" type="line"/>
      <point x="682" y="745"/>
      <point x="614" y="750"/>
      <point x="559" y="750" type="curve" smooth="yes"/>
      <point x="208" y="750"/>
      <point x="41" y="601"/>
      <point x="41" y="366" type="curve" smooth="yes"/>
      <point x="41" y="121"/>
      <point x="203" y="-10"/>
      <point x="547" y="-10" type="curve" smooth="yes"/>
    </contour>
    <contour>
      <point x="469" y="760" type="move" name="top"/>
    </contour>
    <contour>
      <point x="469" y="0" type="move" name="bottom"/>
    </contour>
  </outline>
</glyph>
<glyph name="H" format="1">
  <advance width="895"/>
  <unicode hex="0048"/>
  <outline>
    <contour>
      <point x="302" y="0" type="line"/>
      <point x="302" y="277" type="line"/>
      <point x="593" y="277" type="line"/>
      <point x="593" y="0" type="line"/>
      <point x="831" y="0" type="line"/>
      <point x="831" y="740" type="line"/>
      <point x="593" y="740" type="line"/>
      <point x="593" y="478" type="line"/>
      <point x="302" y="478" type="line"/>
      <point x="302" y="740" type="line"/>
      <point x="64" y="740" type="line"/>
      <point x="64" y="0" type="line"/>
    </contour>
    <contour>
      <point x="448" y="611" type="move" name="center"/>
    </contour>
    <contour>
      <point x="448" y="760" type="move" name="top"/>
    </contour>
    <contour>
      <point x="21" y="740" type="move" name="topleft"/>
    </contour>
    <contour>
      <point x="448" y="0" type="move" name="bottom"/>
    </contour>
  </outline>
</glyph>
<glyph name="I" format="1">
  <advance width="366"/>
  <unicode hex="0049"/>
  <outline>
    <contour>
      <point x="302" y="0" type="line"/>
      <point x="302" y="740" type="line"/>
      <point x="64" y="740" type="line"/>
      <point x="64" y="0" type="line"/>
    </contour>
    <contour>
      <point x="302" y="0" type="move" name="ogonek"/>
    </contour>
    <contour>
      <point x="182" y="0" type="move" name="bottom"/>
    </contour>
    <contour>
      <point x="183" y="760" type="move" name="top"/>
    </contour>
  </outline>
</glyph>
<glyph name="J" format="1">
  <advance width="366"/>
  <unicode hex="004A"/>
  <outline>
    <contour>
      <point x="261" y="-70"/>
      <point x="302" y="34"/>
      <point x="302" y="159" type="curve" smooth="yes"/>
      <point x="302" y="740" type="line"/>
      <point x="66" y="740" type="line"/>
      <point x="66" y="151" type="line" smooth="yes"/>
      <point x="66" y="48"/>
      <point x="48" y="-15"/>
      <point x="-7" y="-81" type="curve"/>
      <point x="139" y="-179" type="line"/>
    </contour>
    <contour>
      <point x="184" y="760" type="move" name="top"/>
    </contour>
    <contour>
      <point x="302" y="0" type="move" name="bottom"/>
    </contour>
  </outline>
</glyph>
<glyph name="K" format="1">
  <advance width="771"/>
  <unicode hex="004B"/>
  <outline>
    <contour>
      <point x="798" y="0" type="line"/>
      <point x="518" y="406" type="line"/>
      <point x="512" y="351" type="line"/>
      <point x="773" y="740" type="line"/>
      <point x="524" y="740" type="line"/>
      <point x="280" y="377" type="line"/>
      <point x="540" y="0" type="line"/>
    </contour>
    <contour>
      <point x="302" y="0" type="line"/>
      <point x="302" y="740" type="line"/>
      <point x="64" y="740" type="line"/>
      <point x="64" y="0" type="line"/>
    </contour>
    <contour>
      <point x="375" y="277" type="line"/>
      <point x="375" y="478" type="line"/>
      <point x="270" y="478" type="line"/>
      <point x="270" y="277" type="line"/>
    </contour>
    <contour>
      <point x="404" y="740" type="move" name="top"/>
    </contour>
    <contour>
      <point x="407" y="0" type="move" name="bottom"/>
    </contour>
  </outline>
</glyph>
<glyph name="L" format="1">
  <advance width="679"/>
  <unicode hex="004C"/>
  <outline>
    <contour>
      <point x="674" y="0" type="line"/>
      <point x="674" y="184" type="line"/>
      <point x="302" y="184" type="line"/>
      <point x="302" y="740" type="line"/>
      <point x="64" y="740" type="line"/>
      <point x="64" y="0" type="line"/>
    </contour>
    <contour>
      <point x="518" y="465" type="move" name="periodcentered"/>
    </contour>
    <contour>
      <point x="183" y="760" type="move" name="top"/>
    </contour>
    <contour>
      <point x="183" y="427" type="move" name="slash"/>
    </contour>
    <contour>
      <point x="457" y="740" type="move" name="caronalt"/>
    </contour>
    <contour>
      <point x="369" y="0" type="move" name="bottom"/>
    </contour>
  </outline>
</glyph>
<glyph name="M" format="1">
  <advance width="1086"/>
  <unicode hex="004D"/>
  <outline>
    <contour>
      <point x="290" y="0" type="line"/>
      <point x="290" y="543" type="line"/>
      <point x="231" y="543" type="line"/>
      <point x="445" y="110" type="line"/>
      <point x="641" y="110" type="line"/>
      <point x="843" y="543" type="line"/>
      <point x="796" y="543" type="line"/>
      <point x="796" y="0" type="line"/>
      <point x="1020" y="0" type="line"/>
      <point x="1020" y="740" type="line"/>
      <point x="731" y="740" type="line"/>
      <point x="533" y="314" type="line"/>
      <point x="560" y="314" type="line"/>
      <point x="355" y="740" type="line"/>
      <point x="66" y="740" type="line"/>
      <point x="66" y="0" type="line"/>
    </contour>
    <contour>
      <point x="559" y="740" type="move" name="top"/>
    </contour>
    <contour>
      <point x="559" y="0" type="move" name="bottom"/>
    </contour>
  </outline>
</glyph>
<glyph name="N" format="1">
  <advance width="900"/>
  <unicode hex="004E"/>
  <outline>
    <contour>
      <point x="288" y="0" type="line"/>
      <point x="288" y="459" type="line"/>
      <point x="251" y="459" type="line"/>
      <point x="598" y="0" type="line"/>
      <point x="836" y="0" type="line"/>
      <point x="836" y="740" type="line"/>
      <point x="612" y="740" type="line"/>
      <point x="612" y="281" type="line"/>
      <point x="649" y="281" type="line"/>
      <point x="302" y="740" type="line"/>
      <point x="64" y="740" type="line"/>
      <point x="64" y="0" type="line"/>
    </contour>
    <contour>
      <point x="450" y="760" type="move" name="top"/>
    </contour>
    <contour>
      <point x="450" y="0" type="move" name="bottom"/>
    </contour>
  </outline>
</glyph>
<glyph name="O" format="1">
  <advance width="944"/>
  <unicode hex="004F"/>
  <outline>
    <contour>
      <point x="739" y="-10"/>
      <point x="903" y="137"/>
      <point x="903" y="370" type="curve" smooth="yes"/>
      <point x="903" y="603"/>
      <point x="740" y="750"/>
      <point x="472" y="750" type="curve" smooth="yes"/>
      <point x="204" y="750"/>
      <point x="41" y="605"/>
      <point x="41" y="370" type="curve" smooth="yes"/>
      <point x="41" y="135"/>
      <point x="205" y="-10"/>
      <point x="472" y="-10" type="curve" smooth="yes"/>
    </contour>
    <contour>
      <point x="347" y="174"/>
      <point x="281" y="240"/>
      <point x="281" y="374" type="curve" smooth="yes"/>
      <point x="281" y="500"/>
      <point x="350" y="566"/>
      <point x="472" y="566" type="curve" smooth="yes"/>
      <point x="594" y="566"/>
      <point x="663" y="497"/>
      <point x="663" y="366" type="curve" smooth="yes"/>
      <point x="663" y="243"/>
      <point x="597" y="174"/>
      <point x="472" y="174" type="curve" smooth="yes"/>
    </contour>
    <contour>
      <point x="472" y="370" type="move" name="center"/>
    </contour>
    <contour>
      <point x="551" y="0" type="move" name="ogonek"/>
    </contour>
    <contour>
      <point x="472" y="760" type="move" name="top"/>
    </contour>
    <contour>
      <point x="587" y="740" type="move" name="topright"/>
    </contour>
    <contour>
      <point x="29" y="740" type="move" name="topleft"/>
    </contour>
    <contour>
      <point x="472" y="0" type="move" name="bottom"/>
    </contour>
  </outline>
</glyph>
<glyph name="P" format="1">
  <advance width="762"/>
  <unicode hex="0050"/>
  <outline>
    <contour>
      <point x="302" y="0" type="line"/>
      <point x="302" y="195" type="line"/>
      <point x="321" y="195"/>
      <point x="343" y="194"/>
      <point x="364" y="194" type="curve" smooth="yes"/>
      <point x="600" y="194"/>
      <point x="724" y="287"/>
      <point x="724" y="472" type="curve" smooth="yes"/>
      <point x="724" y="665"/>
      <point x="597" y="750"/>
      <point x="337" y="750" type="curve" smooth="yes"/>
      <point x="235" y="750"/>
      <point x="146" y="740"/>
      <point x="64" y="725" type="curve"/>
      <point x="64" y="0" type="line"/>
    </contour>
    <contour>
      <point x="342" y="357"/>
      <point x="325" y="358"/>
      <point x="302" y="361" type="curve"/>
      <point x="302" y="583" type="line"/>
      <point x="321" y="586"/>
      <point x="338" y="587"/>
      <point x="360" y="587" type="curve" smooth="yes"/>
      <point x="454" y="587"/>
      <point x="495" y="553"/>
      <point x="495" y="472" type="curve" smooth="yes"/>
      <point x="495" y="386"/>
      <point x="454" y="357"/>
      <point x="366" y="357" type="curve" smooth="yes"/>
    </contour>
  </outline>
</glyph>
<glyph name="Q" format="1">
  <advance width="944"/>
  <unicode hex="0051"/>
  <outline>
    <contour>
      <point x="899" y="-22" type="line"/>
      <point x="744" y="-3"/>
      <point x="604" y="25"/>
      <point x="473" y="70" type="curve"/>
      <point x="392" y="14" type="line"/>
      <point x="745" y="-30"/>
      <point x="903" y="137"/>
      <point x="903" y="370" type="curve" smooth="yes"/>
      <point x="903" y="603"/>
      <point x="740" y="750"/>
      <point x="472" y="750" type="curve" smooth="yes"/>
      <point x="204" y="750"/>
      <point x="41" y="605"/>
      <point x="41" y="360" type="curve" smooth="yes"/>
      <point x="41" y="112"/>
      <point x="209" y="-102"/>
      <point x="864" y="-197" type="curve"/>
    </contour>
    <contour>
      <point x="345" y="174"/>
      <point x="281" y="238"/>
      <point x="281" y="374" type="curve" smooth="yes"/>
      <point x="281" y="500"/>
      <point x="350" y="566"/>
      <point x="472" y="566" type="curve" smooth="yes"/>
      <point x="594" y="566"/>
      <point x="663" y="497"/>
      <point x="663" y="366" type="curve" smooth="yes"/>
      <point x="663" y="243"/>
      <point x="597" y="174"/>
      <point x="472" y="174" type="curve" smooth="yes"/>
    </contour>
  </outline>
</glyph>
<glyph name="R" format="1">
  <advance width="792"/>
  <unicode hex="0052"/>
  <outline>
    <contour>
      <point x="297" y="0" type="line"/>
      <point x="297" y="248" type="line"/>
      <point x="321" y="247"/>
      <point x="345" y="246"/>
      <point x="366" y="246" type="curve" smooth="yes"/>
      <point x="578" y="246"/>
      <point x="715" y="332"/>
      <point x="715" y="499" type="curve" smooth="yes"/>
      <point x="715" y="673"/>
      <point x="586" y="750"/>
      <point x="348" y="750" type="curve" smooth="yes"/>
      <point x="261" y="750"/>
      <point x="143" y="735"/>
      <point x="64" y="716" type="curve"/>
      <point x="64" y="0" type="line"/>
    </contour>
    <contour>
      <point x="790" y="0" type="line"/>
      <point x="540" y="340" type="line"/>
      <point x="283" y="340" type="line"/>
      <point x="529" y="0" type="line"/>
    </contour>
    <contour>
      <point x="352" y="410"/>
      <point x="322" y="412"/>
      <point x="297" y="415" type="curve"/>
      <point x="297" y="581" type="line"/>
      <point x="319" y="585"/>
      <point x="348" y="588"/>
      <point x="370" y="588" type="curve" smooth="yes"/>
      <point x="454" y="588"/>
      <point x="495" y="560"/>
      <point x="495" y="499" type="curve" smooth="yes"/>
      <point x="495" y="434"/>
      <point x="454" y="410"/>
      <point x="376" y="410" type="curve" smooth="yes"/>
    </contour>
    <contour>
      <point x="397" y="760" type="move" name="top"/>
    </contour>
    <contour>
      <point x="408" y="0" type="move" name="bottom"/>
    </contour>
  </outline>
</glyph>
<glyph name="S" format="1">
  <advance width="687"/>
  <unicode hex="0053"/>
  <outline>
    <contour>
      <point x="523" y="-10"/>
      <point x="656" y="83"/>
      <point x="656" y="233" type="curve" smooth="yes"/>
      <point x="656" y="358"/>
      <point x="580" y="424"/>
      <point x="401" y="458" type="curve" smooth="yes"/>
      <point x="279" y="481"/>
      <point x="264" y="493"/>
      <point x="264" y="520" type="curve" smooth="yes"/>
      <point x="264" y="547"/>
      <point x="293" y="569"/>
      <point x="421" y="569" type="curve" smooth="yes"/>
      <point x="484" y="569"/>
      <point x="563" y="559"/>
      <point x="613" y="545" type="curve"/>
      <point x="613" y="729" type="line"/>
      <point x="560" y="741"/>
      <point x="488" y="750"/>
      <point x="409" y="750" type="curve" smooth="yes"/>
      <point x="154" y="750"/>
      <point x="31" y="664"/>
      <point x="31" y="510" type="curve" smooth="yes"/>
      <point x="31" y="391"/>
      <point x="106" y="312"/>
      <point x="270" y="286" type="curve" smooth="yes"/>
      <point x="402" y="265"/>
      <point x="423" y="249"/>
      <point x="423" y="216" type="curve" smooth="yes"/>
      <point x="423" y="189"/>
      <point x="402" y="171"/>
      <point x="299" y="171" type="curve" smooth="yes"/>
      <point x="236" y="171"/>
      <point x="122" y="184"/>
      <point x="52" y="206" type="curve"/>
      <point x="52" y="22" type="line"/>
      <point x="123" y="3"/>
      <point x="206" y="-10"/>
      <point x="301" y="-10" type="curve" smooth="yes"/>
    </contour>
    <contour>
      <point x="351" y="760" type="move" name="top"/>
    </contour>
    <contour>
      <point x="351" y="0" type="move" name="bottom"/>
    </contour>
  </outline>
</glyph>
<glyph name="T" format="1">
  <advance width="764"/>
  <unicode hex="0054"/>
  <outline>
    <contour>
      <point x="501" y="0" type="line"/>
      <point x="501" y="556" type="line"/>
      <point x="754" y="556" type="line"/>
      <point x="754" y="740" type="line"/>
      <point x="10" y="740" type="line"/>
      <point x="10" y="556" type="line"/>
      <point x="263" y="556" type="line"/>
      <point x="263" y="0" type="line"/>
    </contour>
    <contour>
      <point x="382" y="350" type="move" name="center"/>
    </contour>
    <contour>
      <point x="382" y="0" type="move" name="bottom"/>
    </contour>
    <contour>
      <point x="382" y="760" type="move" name="top"/>
    </contour>
  </outline>
</glyph>
<glyph name="U" format="1">
  <advance width="876"/>
  <unicode hex="0055"/>
  <outline>
    <contour>
      <point x="706" y="-10"/>
      <point x="815" y="123"/>
      <point x="815" y="347" type="curve" smooth="yes"/>
      <point x="815" y="740" type="line"/>
      <point x="581" y="740" type="line"/>
      <point x="581" y="328" type="line" smooth="yes"/>
      <point x="581" y="225"/>
      <point x="534" y="178"/>
      <point x="440" y="178" type="curve" smooth="yes"/>
      <point x="346" y="178"/>
      <point x="299" y="225"/>
      <point x="299" y="328" type="curve" smooth="yes"/>
      <point x="299" y="740" type="line"/>
      <point x="61" y="740" type="line"/>
      <point x="61" y="347" type="line" smooth="yes"/>
      <point x="61" y="123"/>
      <point x="169" y="-10"/>
      <point x="440" y="-10" type="curve" smooth="yes"/>
    </contour>
    <contour>
      <point x="569" y="0" type="move" name="ogonek"/>
    </contour>
    <contour>
      <point x="440" y="760" type="move" name="top"/>
    </contour>
    <contour>
      <point x="581" y="740" type="move" name="topright"/>
    </contour>
    <contour>
      <point x="440" y="0" type="move" name="bottom"/>
    </contour>
  </outline>
</glyph>
<glyph name="V" format="1">
  <advance width="868"/>
  <unicode hex="0056"/>
  <outline>
    <contour>
      <point x="606" y="0" type="line"/>
      <point x="866" y="740" type="line"/>
      <point x="632" y="740" type="line"/>
      <point x="412" y="98" type="line"/>
      <point x="468" y="98" type="line"/>
      <point x="253" y="740" type="line"/>
      <point x="2" y="740" type="line"/>
      <point x="262" y="0" type="line"/>
    </contour>
  </outline>
</glyph>
<glyph name="W" format="1">
  <advance width="1372"/>
  <unicode hex="0057"/>
  <outline>
    <contour>
      <point x="532" y="0" type="line"/>
      <point x="722" y="618" type="line"/>
      <point x="657" y="618" type="line"/>
      <point x="840" y="0" type="line"/>
      <point x="1140" y="0" type="line"/>
      <point x="1361" y="740" type="line"/>
      <point x="1135" y="740" type="line"/>
      <point x="957" y="118" type="line"/>
      <point x="1003" y="118" type="line"/>
      <point x="822" y="740" type="line"/>
      <point x="562" y="740" type="line"/>
      <point x="372" y="118" type="line"/>
      <point x="425" y="118" type="line"/>
      <point x="251" y="740" type="line"/>
      <point x="11" y="740" type="line"/>
      <point x="232" y="0" type="line"/>
    </contour>
    <contour>
      <point x="686" y="760" type="move" name="top"/>
    </contour>
    <contour>
      <point x="686" y="0" type="move" name="bottom"/>
    </contour>
  </outline>
</glyph>
<glyph name="X" format="1">
  <advance width="794"/>
  <unicode hex="0058"/>
  <outline>
    <contour>
      <point x="830" y="0" type="line"/>
      <point x="535" y="391" type="line"/>
      <point x="398" y="543" type="line"/>
      <point x="252" y="740" type="line"/>
      <point x="-12" y="740" type="line"/>
      <point x="256" y="387" type="line"/>
      <point x="393" y="235" type="line"/>
      <point x="566" y="0" type="line"/>
    </contour>
    <contour>
      <point x="221" y="0" type="line"/>
      <point x="393" y="235" type="line"/>
      <point x="535" y="391" type="line"/>
      <point x="798" y="740" type="line"/>
      <point x="543" y="740" type="line"/>
      <point x="398" y="543" type="line"/>
      <point x="256" y="387" type="line"/>
      <point x="-35" y="0" type="line"/>
    </contour>
  </outline>
</glyph>
<glyph name="Y" format="1">
  <advance width="764"/>
  <unicode hex="0059"/>
  <outline>
    <contour>
      <point x="503" y="0" type="line"/>
      <point x="503" y="388" type="line"/>
      <point x="457" y="233" type="line"/>
      <point x="785" y="740" type="line"/>
      <point x="551" y="740" type="line"/>
      <point x="355" y="436" type="line"/>
      <point x="421" y="436" type="line"/>
      <point x="220" y="740" type="line"/>
      <point x="-31" y="740" type="line"/>
      <point x="311" y="233" type="line"/>
      <point x="265" y="391" type="line"/>
      <point x="265" y="0" type="line"/>
    </contour>
    <contour>
      <point x="381" y="760" type="move" name="top"/>
    </contour>
    <contour>
      <point x="381" y="0" type="move" name="bottom"/>
    </contour>
    <contour>
      <point x="5" y="740" type="move" name="topleft"/>
    </contour>
  </outline>
</glyph>
<glyph name="Z" format="1">
  <advance width="739"/>
  <unicode hex="005A"/>
  <outline>
    <contour>
      <point x="698" y="0" type="line"/>
      <point x="698" y="184" type="line"/>
      <point x="313" y="184" type="line"/>
      <point x="313" y="140" type="line"/>
      <point x="693" y="613" type="line"/>
      <point x="693" y="740" type="line"/>
      <point x="46" y="740" type="line"/>
      <point x="46" y="556" type="line"/>
      <point x="421" y="556" type="line"/>
      <point x="421" y="600" type="line"/>
      <point x="41" y="127" type="line"/>
      <point x="41" y="0" type="line"/>
    </contour>
    <contour>
      <point x="370" y="760" type="move" name="top"/>
    </contour>
    <contour>
      <point x="370" y="0" type="move" name="bottom"/>
    </contour>
  </outline>
</glyph>
<glyph name="a" format="1">
  <advance width="670"/>
  <unicode hex="0061"/>
  <outline>
    <contour>
      <point x="305" y="-11"/>
      <point x="361" y="5"/>
      <point x="400" y="45" type="curve"/>
      <point x="410" y="45" type="line"/>
      <point x="425" y="0" type="line"/>
      <point x="617" y="0" type="line"/>
      <point x="617" y="287" type="line" smooth="yes"/>
      <point x="617" y="492"/>
      <point x="525" y="559"/>
      <point x="297" y="559" type="curve" smooth="yes"/>
      <point x="235" y="559"/>
      <point x="153" y="551"/>
      <point x="85" y="533" type="curve"/>
      <point x="85" y="372" type="line"/>
      <point x="139" y="387"/>
      <point x="208" y="395"/>
      <point x="255" y="395" type="curve" smooth="yes"/>
      <point x="359" y="395"/>
      <point x="390" y="371"/>
      <point x="390" y="307" type="curve" smooth="yes"/>
      <point x="390" y="152" type="line"/>
      <point x="368" y="141"/>
      <point x="341" y="138"/>
      <point x="319" y="138" type="curve" smooth="yes"/>
      <point x="277" y="138"/>
      <point x="257" y="154"/>
      <point x="257" y="177" type="curve" smooth="yes"/>
      <point x="257" y="202"/>
      <point x="274" y="219"/>
      <point x="325" y="222" type="curve" smooth="yes"/>
      <point x="450" y="229" type="line"/>
      <point x="428" y="341" type="line"/>
      <point x="305" y="334" type="line" smooth="yes"/>
      <point x="112" y="323"/>
      <point x="28" y="263"/>
      <point x="28" y="156" type="curve" smooth="yes"/>
      <point x="28" y="62"/>
      <point x="99" y="-11"/>
      <point x="243" y="-11" type="curve" smooth="yes"/>
    </contour>
    <contour>
      <point x="617" y="0" type="move" name="ogonek"/>
    </contour>
    <contour>
      <point x="333" y="0" type="move" name="bottom"/>
    </contour>
    <contour>
      <point x="333" y="600" type="move" name="top"/>
    </contour>
  </outline>
</glyph>
<glyph name="o" format="1">
  <advance width="730"/>
  <unicode hex="006F"/>
  <outline>
    <contour>
      <point x="566" y="-11"/>
      <point x="698" y="97"/>
      <point x="698" y="275" type="curve" smooth="yes"/>
      <point x="698" y="453"/>
      <point x="577" y="559"/>
      <point x="365" y="559" type="curve" smooth="yes"/>
      <point x="153" y="559"/>
      <point x="32" y="453"/>
      <point x="32" y="275" type="curve" smooth="yes"/>
      <point x="32" y="97"/>
      <point x="164" y="-11"/>
      <point x="365" y="-11" type="curve" smooth="yes"/>
    </contour>
    <contour>
      <point x="297" y="163"/>
      <point x="261" y="198"/>
      <point x="261" y="275" type="curve" smooth="yes"/>
      <point x="261" y="352"/>
      <point x="297" y="385"/>
      <point x="365" y="385" type="curve" smooth="yes"/>
      <point x="433" y="385"/>
      <point x="469" y="352"/>
      <point x="469" y="275" type="curve" smooth="yes"/>
      <point x="469" y="198"/>
      <point x="433" y="163"/>
      <point x="365" y="163" type="curve" smooth="yes"/>
    </contour>
    <contour>
      <point x="365" y="275" type="move" name="center"/>
    </contour>
    <contour>
      <point x="470" y="0" type="move" name="ogonek"/>
    </contour>
    <contour>
      <point x="365" y="600" type="move" name="top"/>
    </contour>
    <contour>
      <point x="366" y="550" type="move" name="topright"/>
    </contour>
    <contour>
      <point x="365" y="0" type="move" name="bottom"/>
    </contour>
  </outline>
</glyph>
<glyph name="AE" format="1">
  <advance width="1189"/>
  <unicode hex="00C6"/>
  <outline>
    <contour>
      <point x="237" y="0" type="line"/>
      <point x="421" y="560" type="line"/>
      <point x="600" y="560" type="line"/>
      <point x="600" y="740" type="line"/>
      <point x="267" y="740" type="line"/>
      <point x="7" y="0" type="line"/>
    </contour>
    <contour>
      <point x="596" y="167" type="line"/>
      <point x="596" y="342" type="line"/>
      <point x="304" y="342" type="line"/>
      <point x="249" y="167" type="line"/>
    </contour>
    <contour>
      <point x="1147" y="0" type="line"/>
      <point x="1147" y="177" type="line"/>
      <point x="780" y="177" type="line"/>
      <point x="741" y="563" type="line"/>
      <point x="1142" y="563" type="line"/>
      <point x="1142" y="740" type="line"/>
      <point x="493" y="740" type="line"/>
      <point x="557" y="0" type="line"/>
    </contour>
    <contour>
      <point x="1089" y="290" type="line"/>
      <point x="1089" y="465" type="line"/>
      <point x="620" y="465" type="line"/>
      <point x="620" y="290" type="line"/>
    </contour>
    <contour>
      <point x="617" y="760" type="move" name="top"/>
    </contour>
    <contour>
      <point x="617" y="0" type="move" name="bottom"/>
    </contour>
  </outline>
</glyph>
<glyph name="Oslash" format="1">
  <advance width="944"/>
  <unicode hex="00D8"/>
  <outline>
    <component base="O"/>
    <component base="slashcomb.case" xOffset="22"/>
    <contour>
      <point x="471" y="760" type="move" name="top"/>
    </contour>
    <contour>
      <point x="471" y="0" type="move" name="bottom"/>
    </contour>
  </outline>
</glyph>
<glyph name="Thorn" format="1">
  <advance width="767"/>
  <unicode hex="00DE"/>
  <outline>
    <contour>
      <point x="302" y="0" type="line"/>
      <point x="302" y="103" type="line"/>
      <point x="321" y="103"/>
      <point x="345" y="102"/>
      <point x="366" y="102" type="curve" smooth="yes"/>
      <point x="600" y="102"/>
      <point x="724" y="195"/>
      <point x="724" y="380" type="curve" smooth="yes"/>
      <point x="724" y="573"/>
      <point x="599" y="658"/>
      <point x="342" y="658" type="curve" smooth="yes"/>
      <point x="330" y="658"/>
      <point x="314" y="657"/>
      <point x="302" y="657" type="curve"/>
      <point x="302" y="740" type="line"/>
      <point x="64" y="740" type="line"/>
      <point x="64" y="0" type="line"/>
    </contour>
    <contour>
      <point x="342" y="265"/>
      <point x="325" y="266"/>
      <point x="302" y="268" type="curve"/>
      <point x="302" y="491" type="line"/>
      <point x="321" y="494"/>
      <point x="338" y="495"/>
      <point x="360" y="495" type="curve" smooth="yes"/>
      <point x="454" y="495"/>
      <point x="495" y="461"/>
      <point x="495" y="380" type="curve" smooth="yes"/>
      <point x="495" y="294"/>
      <point x="454" y="265"/>
      <point x="366" y="265" type="curve" smooth="yes"/>
    </contour>
  </outline>
</glyph>
<glyph name="OE" format="1">
  <advance width="1251"/>
  <unicode hex="0152"/>
  <outline>
    <contour>
      <point x="625" y="-7"/>
      <point x="690" y="0"/>
      <point x="753" y="0" type="curve" smooth="yes"/>
      <point x="1209" y="0" type="line"/>
      <point x="1209" y="177" type="line"/>
      <point x="823" y="177" type="line"/>
      <point x="823" y="563" type="line"/>
      <point x="1204" y="563" type="line"/>
      <point x="1204" y="740" type="line"/>
      <point x="753" y="740" type="line" smooth="yes"/>
      <point x="689" y="740"/>
      <point x="622" y="747"/>
      <point x="565" y="747" type="curve" smooth="yes"/>
      <point x="217" y="747"/>
      <point x="41" y="631"/>
      <point x="41" y="370" type="curve" smooth="yes"/>
      <point x="41" y="99"/>
      <point x="207" y="-7"/>
      <point x="575" y="-7" type="curve" smooth="yes"/>
    </contour>
    <contour>
      <point x="352" y="179"/>
      <point x="280" y="236"/>
      <point x="280" y="368" type="curve" smooth="yes"/>
      <point x="280" y="504"/>
      <point x="352" y="561"/>
      <point x="510" y="561" type="curve" smooth="yes"/>
      <point x="539" y="561"/>
      <point x="564" y="561"/>
      <point x="588" y="559" type="curve"/>
      <point x="588" y="181" type="line"/>
      <point x="564" y="179"/>
      <point x="533" y="179"/>
      <point x="510" y="179" type="curve" smooth="yes"/>
    </contour>
    <contour>
      <point x="1151" y="290" type="line"/>
      <point x="1151" y="465" type="line"/>
      <point x="702" y="465" type="line"/>
      <point x="702" y="290" type="line"/>
    </contour>
    <contour>
      <point x="706" y="760" type="move" name="top"/>
    </contour>
    <contour>
      <point x="706" y="0" type="move" name="bottom"/>
    </contour>
  </outline>
</glyph>
<glyph name="Schwa" format="1">
  <advance width="927"/>
  <unicode hex="018F"/>
  <outline>
    <contour>
      <point x="733" y="-10"/>
      <point x="886" y="137"/>
      <point x="886" y="360" type="curve" smooth="yes"/>
      <point x="886" y="625"/>
      <point x="711" y="750"/>
      <point x="352" y="750" type="curve" smooth="yes"/>
      <point x="269" y="750"/>
      <point x="178" y="743"/>
      <point x="97" y="729" type="curve"/>
      <point x="97" y="545" type="line"/>
      <point x="170" y="559"/>
      <point x="259" y="567"/>
      <point x="335" y="567" type="curve" smooth="yes"/>
      <point x="542" y="567"/>
      <point x="655" y="513"/>
      <point x="655" y="356" type="curve" smooth="yes"/>
      <point x="655" y="211"/>
      <point x="594" y="162"/>
      <point x="471" y="162" type="curve" smooth="yes"/>
      <point x="334" y="162"/>
      <point x="276" y="217"/>
      <point x="276" y="356" type="curve"/>
      <point x="202" y="275" type="line"/>
      <point x="718" y="275" type="line"/>
      <point x="718" y="436" type="line"/>
      <point x="36" y="436" type="line"/>
      <point x="36" y="370" type="line" smooth="yes"/>
      <point x="36" y="135"/>
      <point x="199" y="-10"/>
      <point x="468" y="-10" type="curve" smooth="yes"/>
    </contour>
    <contour>
      <point x="404" y="740" type="move" name="top"/>
    </contour>
    <contour>
      <point x="404" y="0" type="move" name="bottom"/>
    </contour>
  </outline>
</glyph>
<glyph name="Ohorn" format="1">
  <advance width="944"/>
  <unicode hex="01A0"/>
  <outline>
    <contour>
      <point x="739" y="-10"/>
      <point x="903" y="137"/>
      <point x="903" y="370" type="curve" smooth="yes"/>
      <point x="903" y="512"/>
      <point x="843" y="623"/>
      <point x="734" y="685" type="curve"/>
      <point x="734" y="641" type="line"/>
      <point x="842" y="641"/>
      <point x="911" y="697"/>
      <point x="911" y="812" type="curve" smooth="yes"/>
      <point x="911" y="833"/>
      <point x="910" y="856"/>
      <point x="902" y="888" type="curve"/>
      <point x="757" y="888" type="line"/>
      <point x="762" y="855"/>
      <point x="763" y="836"/>
      <point x="763" y="818" type="curve" smooth="yes"/>
      <point x="763" y="759"/>
      <point x="728" y="740"/>
      <point x="654" y="740" type="curve" smooth="yes"/>
      <point x="606" y="740"/>
      <point x="530" y="750"/>
      <point x="472" y="750" type="curve" smooth="yes"/>
      <point x="204" y="750"/>
      <point x="41" y="605"/>
      <point x="41" y="370" type="curve" smooth="yes"/>
      <point x="41" y="135"/>
      <point x="205" y="-10"/>
      <point x="472" y="-10" type="curve" smooth="yes"/>
    </contour>
    <contour>
      <point x="347" y="174"/>
      <point x="281" y="240"/>
      <point x="281" y="374" type="curve" smooth="yes"/>
      <point x="281" y="500"/>
      <point x="350" y="566"/>
      <point x="472" y="566" type="curve" smooth="yes"/>
      <point x="594" y="566"/>
      <point x="663" y="497"/>
      <point x="663" y="366" type="curve" smooth="yes"/>
      <point x="663" y="243"/>
      <point x="597" y="174"/>
      <point x="472" y="174" type="curve" smooth="yes"/>
    </contour>
    <contour>
      <point x="472" y="760" type="move" name="top"/>
    </contour>
    <contour>
      <point x="472" y="0" type="move" name="bottom"/>
    </contour>
  </outline>
</glyph>
<glyph name="Uhorn" format="1">
  <advance width="876"/>
  <unicode hex="01AF"/>
  <outline>
    <contour>
      <point x="906" y="833"/>
      <point x="905" y="856"/>
      <point x="897" y="888" type="curve"/>
      <point x="752" y="888" type="line"/>
      <point x="757" y="855"/>
      <point x="758" y="836"/>
      <point x="758" y="818" type="curve" smooth="yes"/>
      <point x="758" y="759"/>
      <point x="723" y="740"/>
      <point x="649" y="740" type="curve" smooth="yes"/>
      <point x="581" y="740" type="line"/>
      <point x="581" y="328" type="line" smooth="yes"/>
      <point x="581" y="225"/>
      <point x="534" y="178"/>
      <point x="440" y="178" type="curve" smooth="yes"/>
      <point x="346" y="178"/>
      <point x="299" y="225"/>
      <point x="299" y="328" type="curve" smooth="yes"/>
      <point x="299" y="740" type="line"/>
      <point x="61" y="740" type="line"/>
      <point x="61" y="347" type="line" smooth="yes"/>
      <point x="61" y="123"/>
      <point x="169" y="-10"/>
      <point x="440" y="-10" type="curve" smooth="yes"/>
      <point x="706" y="-10"/>
      <point x="815" y="123"/>
      <point x="815" y="347" type="curve" smooth="yes"/>
      <point x="815" y="656" type="line"/>
      <point x="872" y="680"/>
      <point x="906" y="732"/>
      <point x="906" y="812" type="curve" smooth="yes"/>
    </contour>
    <contour>
      <point x="438" y="760" type="move" name="top"/>
    </contour>
    <contour>
      <point x="438" y="0" type="move" name="bottom"/>
    </contour>
  </outline>
</glyph>
<glyph name="slashshortcomb" format="1">
  <advance width="400"/>
  <unicode hex="0337"/>
  <outline>
    <contour>
      <point x="415" y="415" type="line"/>
      <point x="356" y="536" type="line"/>
      <point x="-15" y="359" type="line"/>
      <point x="44" y="238" type="line"/>
    </contour>
    <contour>
      <point x="200" y="387" type="move" name="_slash"/>
    </contour>
  </outline>
</glyph>
<glyph name="Germandbls" format="1">
  <advance width="1071"/>
  <unicode hex="1E9E"/>
  <outline>
    <contour>
      <point x="913" y="-10"/>
      <point x="1040" y="83"/>
      <point x="1040" y="233" type="curve" smooth="yes"/>
      <point x="1040" y="358"/>
      <point x="967" y="421"/>
      <point x="797" y="458" type="curve" smooth="yes"/>
      <point x="691" y="481"/>
      <point x="677" y="493"/>
      <point x="677" y="520" type="curve" smooth="yes"/>
      <point x="677" y="547"/>
      <point x="704" y="569"/>
      <point x="816" y="569" type="curve" smooth="yes"/>
      <point x="876" y="569"/>
      <point x="951" y="559"/>
      <point x="999" y="545" type="curve"/>
      <point x="999" y="729" type="line"/>
      <point x="949" y="741"/>
      <point x="880" y="750"/>
      <point x="805" y="750" type="curve" smooth="yes"/>
      <point x="562" y="750"/>
      <point x="445" y="664"/>
      <point x="445" y="510" type="curve" smooth="yes"/>
      <point x="445" y="391"/>
      <point x="516" y="315"/>
      <point x="673" y="286" type="curve" smooth="yes"/>
      <point x="788" y="265"/>
      <point x="808" y="249"/>
      <point x="808" y="216" type="curve" smooth="yes"/>
      <point x="808" y="187"/>
      <point x="788" y="171"/>
      <point x="700" y="171" type="curve" smooth="yes"/>
      <point x="640" y="171"/>
      <point x="532" y="184"/>
      <point x="465" y="206" type="curve"/>
      <point x="465" y="22" type="line"/>
      <point x="533" y="3"/>
      <point x="612" y="-10"/>
      <point x="702" y="-10" type="curve" smooth="yes"/>
    </contour>
    <contour>
      <point x="302" y="0" type="line"/>
      <point x="302" y="451" type="line" smooth="yes"/>
      <point x="302" y="524"/>
      <point x="339" y="568"/>
      <point x="413" y="568" type="curve" smooth="yes"/>
      <point x="449" y="568"/>
      <point x="477" y="557"/>
      <point x="505" y="540" type="curve"/>
      <point x="636" y="692" type="line"/>
      <point x="572" y="730"/>
      <point x="499" y="750"/>
      <point x="413" y="750" type="curve" smooth="yes"/>
      <point x="173" y="750"/>
      <point x="64" y="623"/>
      <point x="64" y="423" type="curve" smooth="yes"/>
      <point x="64" y="0" type="line"/>
    </contour>
  </outline>
</glyph>
<glyph name="slashcomb.case" format="1">
  <advance width="868"/>
  <outline>
    <contour>
      <point x="832" y="694" type="line"/>
      <point x="748" y="771" type="line"/>
      <point x="68" y="46" type="line"/>
      <point x="152" y="-31" type="line"/>
    </contour>
    <contour>
      <point x="450" y="370" type="move" name="_center"/>
    </contour>
  </outline>
</glyph>
<glyph name="slashcomb" format="1">
  <advance width="600"/>
  <outline>
    <contour>
      <point x="183" y="45" type="line"/>
      <point x="224" y="108" type="line"/>
      <point x="445" y="387" type="line"/>
      <point x="496" y="440" type="line"/>
      <point x="568" y="530" type="line"/>
      <point x="489" y="595" type="line"/>
      <point x="417" y="505" type="line"/>
      <point x="376" y="442" type="line"/>
      <point x="155" y="163" type="line"/>
      <point x="104" y="110" type="line"/>
      <point x="32" y="20" type="line"/>
      <point x="111" y="-45" type="line"/>
    </contour>
    <contour>
      <point x="300" y="275" type="move" name="_center"/>
    </contour>
  </outline>
</glyph>
<glyph name="slashshortcomb.case" format="1">
  <advance width="520"/>
  <outline>
    <contour>
      <point x="527" y="466" type="line"/>
      <point x="466" y="591" type="line"/>
      <point x="-16" y="361" type="line"/>
      <point x="45" y="236" type="line"/>
    </contour>
    <contour>
      <point x="200" y="387" type="move" name="_slash"/>
    </contour>
  </outline>
</glyph>
<glyph name="strokelongcomb.case" format="1">
  <advance width="895"/>
  <outline>
    <contour>
      <point x="893" y="516" type="line"/>
      <point x="893" y="656" type="line"/>
      <point x="4" y="656" type="line"/>
      <point x="4" y="516" type="line"/>
    </contour>
    <contour>
      <point x="449" y="586" type="move" name="_center"/>
    </contour>
  </outline>
</glyph>
<glyph name="strokeshortcomb.D" format="1">
  <advance width="738"/>
  <outline>
    <contour>
      <point x="539" y="480" type="line"/>
      <point x="539" y="620" type="line"/>
      <point x="103" y="620" type="line"/>
      <point x="103" y="480" type="line"/>
    </contour>
    <contour>
      <point x="164" y="550" type="move" name="_stroke"/>
    </contour>
  </outline>
</glyph>
<glyph name="strokeshortcomb.case" format="1">
  <advance width="718"/>
  <outline>
    <contour>
      <point x="652" y="470" type="line"/>
      <point x="652" y="610" type="line"/>
      <point x="88" y="610" type="line"/>
      <point x="88" y="470" type="line"/>
    </contour>
    <contour>
      <point x="370" y="540" type="move" name="_center"/>
    </contour>
  </outline>
</glyph>
<glyph name="strokeshortcomb.d" format="1">
  <advance width="738"/>
  <outline>
    <contour>
      <point x="627" y="485" type="line"/>
      <point x="627" y="615" type="line"/>
      <point x="127" y="615" type="line"/>
      <point x="127" y="485" type="line"/>
    </contour>
    <contour>
      <point x="570" y="550" type="move" name="_stroke"/>
    </contour>
  </outline>
</glyph>
